<?xml version="1.0" encoding="UTF-8" standalone="no"?>
<!-- Created with Inkscape (http://www.inkscape.org/) -->

<svg
   xmlns:dc="http://purl.org/dc/elements/1.1/"
   xmlns:cc="http://creativecommons.org/ns#"
   xmlns:rdf="http://www.w3.org/1999/02/22-rdf-syntax-ns#"
   xmlns:svg="http://www.w3.org/2000/svg"
   xmlns="http://www.w3.org/2000/svg"
   version="1.1"
   width="64"
   height="64"
   id="svg2985">
  <defs
     id="defs2987" />
  <metadata
     id="metadata2990">
    <rdf:RDF>
      <cc:Work
         rdf:about="">
        <dc:format>image/svg+xml</dc:format>
        <dc:type
           rdf:resource="http://purl.org/dc/dcmitype/StillImage" />
        <dc:title></dc:title>
      </cc:Work>
    </rdf:RDF>
  </metadata>
  <g
     id="layer1">
    <g
       transform="matrix(0.12484437,0,0,0.12484437,0.03984128,0.03984128)"
       id="g3075">
      <path
         d="M 100.699,417.596 7.397,256.001 h 124.406 l 31.099,53.868 -62.203,107.727 z"
         id="path3077"
         style="fill:#282828" />
      <path
         d="m 287.105,417.603 -31.107,-53.868 62.206,-107.734 31.101,53.868 -62.2,107.734 z"
         id="path3079"
         style="fill:#282828" />
      <path
         d="m 224.895,94.397 31.107,53.868 -62.206,107.734 -31.101,-53.868 62.2,-107.734 z"
         id="path3081"
         style="fill:#660000" />
      <path
         d="M 411.498,94.404 504.8,255.999 H 380.394 L 349.295,202.131 411.498,94.404 z"
         id="path3083"
         style="fill:#660000" />
      <path
         d="M 100.499,94.404 7.195,255.999 131.598,256.003 224.894,94.396 100.498,94.403 z"
         id="path3085"
         style="fill:#e30613" />
      <path
         d="m 224.895,94.397 31.107,53.868 -62.206,107.734 -26.948,-46.676 58.047,-114.926 z"
         id="path3087"
         style="fill:#be1522" />
      <path
         d="M 193.796,255.999 287.098,94.404 h 124.4 L 318.194,255.999 H 193.795 z"
         id="path3089"
         style="fill:#e30613" />
      <path
         d="M 411.498,94.404 504.8,255.999 H 380.394 l -26.97,-46.714 58.073,-114.881 z"
         id="path3091"
         style="fill:#be1522" />
      <path
         d="m 411.501,417.596 93.304,-161.595 -124.403,-0.004 -93.296,161.607 124.396,-0.007 z"
         id="path3093"
         style="fill:#727272" />
      <path
         d="m 287.105,417.603 -31.107,-53.868 62.206,-107.734 26.952,46.682 -58.052,114.921 z"
         id="path3095"
         style="fill:#575656" />
      <path
         d="m 318.204,256.001 -93.302,161.595 h -124.4 l 93.302,-161.595 h 124.4 z"
         id="path3097"
         style="fill:#727272" />
      <path
         d="M 100.502,417.596 7.2,256.001 h 124.406 l 26.968,46.711 -58.072,114.884 z"
         id="path3099"
         style="fill:#575656" />
    </g>
  </g>
</svg>
