<svg width="512" height="512" xmlns="http://www.w3.org/2000/svg"><title>Layer 1</title><title>Layer 1</title><g><path d="M100.699 417.596l-93.302-161.595h124.406l31.099 53.868-62.203 107.727z" fill="#282828"/><path d="M287.105 417.603l-31.107-53.868 62.206-107.734 31.101 53.868-62.2 107.734z" fill="#282828"/><path d="M224.895 94.397l31.107 53.868-62.206 107.734-31.101-53.868 62.2-107.734z" fill="#600"/><path d="M411.498 94.404l93.302 161.595h-124.406l-31.099-53.868 62.203-107.727z" fill="#600"/><path d="M100.499 94.404l-93.304 161.595 124.403.004 93.296-161.607-124.396.007z" fill="#E30613"/><path d="M224.895 94.397l31.107 53.868-62.206 107.734-26.948-46.676 58.047-114.926z" fill="#BE1522"/><path d="M193.796 255.999l93.302-161.595h124.4l-93.304 161.595h-124.399z" fill="#E30613"/><path d="M411.498 94.404l93.302 161.595h-124.406l-26.97-46.714 58.073-114.881z" fill="#BE1522"/><path d="M411.501 417.596l93.304-161.595-124.403-.004-93.296 161.607 124.396-.007z" fill="#727272"/><path d="M287.105 417.603l-31.107-53.868 62.206-107.734 26.952 46.682-58.052 114.921z" fill="#575656"/><path d="M318.204 256.001l-93.302 161.595h-124.4l93.302-161.595h124.4z" fill="#727272"/><path d="M100.502 417.596l-93.302-161.595h124.406l26.968 46.711-58.072 114.884z" fill="#575656"/></g></svg>