<?xml version="1.0" encoding="UTF-8" standalone="no"?>
<svg
   xmlns:dc="http://purl.org/dc/elements/1.1/"
   xmlns:cc="http://creativecommons.org/ns#"
   xmlns:rdf="http://www.w3.org/1999/02/22-rdf-syntax-ns#"
   xmlns:svg="http://www.w3.org/2000/svg"
   xmlns="http://www.w3.org/2000/svg"
   xmlns:sodipodi="http://sodipodi.sourceforge.net/DTD/sodipodi-0.dtd"
   xmlns:inkscape="http://www.inkscape.org/namespaces/inkscape"
   id="svg3399"
   height="256"
   width="256"
   version="1.1"
   inkscape:version="0.91 r13725"
   sodipodi:docname="mincer.svg">
  <defs
     id="defs3486">
    <filter
       style="color-interpolation-filters:sRGB;"
       inkscape:label="Drop Shadow"
       id="filter4112">
      <feFlood
         flood-opacity="0.466667"
         flood-color="rgb(0,0,0)"
         result="flood"
         id="feFlood4114" />
      <feComposite
         in="flood"
         in2="SourceGraphic"
         operator="in"
         result="composite1"
         id="feComposite4116" />
      <feGaussianBlur
         in="composite1"
         stdDeviation="2"
         result="blur"
         id="feGaussianBlur4118" />
      <feOffset
         dx="3"
         dy="3"
         result="offset"
         id="feOffset4120" />
      <feComposite
         in="SourceGraphic"
         in2="offset"
         operator="over"
         result="composite2"
         id="feComposite4122" />
    </filter>
  </defs>
  <sodipodi:namedview
     pagecolor="#ffffff"
     bordercolor="#666666"
     borderopacity="1"
     objecttolerance="10"
     gridtolerance="10"
     guidetolerance="10"
     inkscape:pageopacity="0"
     inkscape:pageshadow="2"
     inkscape:window-width="1167"
     inkscape:window-height="766"
     id="namedview3484"
     showgrid="false"
     inkscape:zoom="2.296875"
     inkscape:cx="128"
     inkscape:cy="110.58503"
     inkscape:window-x="0"
     inkscape:window-y="0"
     inkscape:window-maximized="0"
     inkscape:current-layer="svg3399" />
  <metadata
     id="metadata2990">image/svg+xml
  <rdf:RDF>
  <cc:Work
     rdf:about="">
    <dc:format>image/svg+xml</dc:format>
    <dc:type
       rdf:resource="http://purl.org/dc/dcmitype/StillImage" />
    <dc:title />
  </cc:Work>
</rdf:RDF>
</metadata>
  <g
     id="g3402"
     style="filter:url(#filter4112)">
    <title
       id="title3404">Layer 1</title>
    <g
       id="layer1"
       stroke="null">
      <g
         id="g3075"
         stroke="null"
         transform="matrix(.49771 0 0 .49771 -2.6429 -34.332)">
        <path
           id="path3077"
           d="m107.19 487.76l-93.302-161.59h124.41l31.099 53.868-62.203 107.73z"
           fill="#282828" />
        <path
           id="path3079"
           d="m293.6 487.76l-31.107-53.868 62.206-107.73 31.101 53.868-62.2 107.73z"
           fill="#282828" />
        <path
           id="path3081"
           d="m231.39 164.56l31.107 53.868-62.206 107.73-31.101-53.868 62.2-107.73z"
           fill="#600" />
        <path
           id="path3083"
           d="m417.99 164.56l93.302 161.6h-124.41l-31.099-53.868 62.203-107.73z"
           fill="#600" />
        <path
           id="path3085"
           d="m106.99 164.56l-93.304 161.6 124.4 0.003967 93.296-161.61-124.4 0.006989 0.000999 0.001007z"
           fill="#e30613" />
        <path
           id="path3087"
           d="m231.39 164.56l31.107 53.868-62.206 107.73-26.948-46.676 58.047-114.93z"
           fill="#be1522" />
        <path
           id="path3089"
           d="m200.29 326.16l93.302-161.6h124.4l-93.304 161.6h-124.4 0.001007z"
           fill="#e30613" />
        <path
           id="path3091"
           d="m417.99 164.56l93.302 161.6h-124.41l-26.97-46.714 58.073-114.88h0.000977z"
           fill="#be1522" />
        <path
           id="path3093"
           d="m417.99 487.76l93.304-161.59-124.4-0.004028-93.296 161.61 124.4-0.006958-0.001007-0.001007z"
           fill="#727272" />
        <path
           id="path3095"
           d="m293.6 487.76l-31.107-53.868 62.206-107.73 26.952 46.682-58.052 114.92 0.001007-0.001007z"
           fill="#575656" />
        <path
           id="path3097"
           d="m324.69 326.16l-93.302 161.59h-124.4l93.302-161.59h124.4z"
           fill="#727272" />
        <path
           id="path3099"
           d="m106.99 487.76l-93.302-161.59h124.41l26.968 46.711-58.072 114.88z"
           fill="#575656" />
      </g>
    </g>
  </g>
</svg>
