<svg width="540" height="540" xmlns="http://www.w3.org/2000/svg">
 <g>
  <title>Layer 1</title>
  <polygon fill="#282828" id="svg_1" points="167.632 375.887 103.804 265.34 188.91 265.34 210.185 302.191"/>
  <polygon fill="#282828" id="svg_2" points="295.152 375.892 273.872 339.041 316.427 265.34 337.703 302.191"/>
  <polygon fill="#660000" id="svg_3" points="252.594 154.787 273.874 191.638 231.319 265.339 210.043 228.488"/>
  <polygon fill="#660000" id="svg_4" points="380.249 154.792 444.077 265.339 358.971 265.339 337.696 228.488"/>
  <polygon id="svg_5" points="167.495 154.792 103.666 265.339 188.77 265.342 252.594 154.787" fill="#E30613"/>
  <polygon id="svg_6" points="252.594 154.787 273.874 191.638 231.319 265.339 212.884 233.408" fill="#BE1522"/>
  <polygon id="svg_7" points="231.319 265.339 295.147 154.792 380.249 154.792 316.42 265.339" fill="#E30613"/>
  <polygon id="svg_8" points="380.249 154.792 444.077 265.339 358.971 265.339 340.521 233.382" fill="#BE1522"/>
  <polygon id="svg_9" points="380.251 375.887 444.08 265.34 358.976 265.337 295.152 375.892" fill="#727272"/>
  <polygon id="svg_10" points="295.152 375.892 273.872 339.041 316.427 265.34 334.865 297.275" fill="#575656"/>
  <polygon id="svg_11" points="316.427 265.34 252.599 375.887 167.497 375.887 231.325 265.34" fill="#727272"/>
  <polygon stroke-width="0" id="svg_12" points="167.497 375.887 103.669 265.34 188.775 265.34 207.224 297.295" fill="#575656"/>
 </g>
</svg>
